# xmcd CD database file
#
# Track frame offsets:
#	150
#	32730
#	49491
#	64107
#	74187
#	92907
#	107251
#	125513
#	135737
#	154122
#	169201
#	183372
#	197114
#	209058
#	221622
#	229976
#
# Disc length: 3303 seconds
#
# Revision: 3
# Processed by: cddbd v1.5.1PL0 Copyright (c) Steve Scherf et al.
# Submitted via: CDex 1.51
#
DISCID=fc0ce510
DTITLE=Leadbelly - Live!  15 June 1949, Univ. of Texas
DYEAR=2002
DGENRE=Blues
TTITLE0=Irene, Goodnight  (full version)
TTITLE1=Ho-Day ain't goin' to the Well No More
TTITLE2=Rock Island Line
TTITLE3=Go Down, Old Hannah
TTITLE4=Shine on Me
TTITLE5=What can I do to Change Your Mind¿
TTITLE6=Skip to My Lou
TTITLE7=Mary and Martha
TTITLE8=C'est bon, les Oeufs
TTITLE9=Whoa, Buck
TTITLE10=John Henry
TTITLE11=Backwater Blues
TTITLE12=Ella Louise
TTITLE13=I don't want No More Army Life
TTITLE14=Relax Your Mind
TTITLE15=Goodnight, Irene  (alt.)
EXTD=YEAR: 2002
EXTT0=
EXTT1=
EXTT2=
EXTT3=
EXTT4=
EXTT5=
EXTT6=
EXTT7=
EXTT8=
EXTT9=
EXTT10=
EXTT11=
EXTT12=
EXTT13=
EXTT14=
EXTT15=
PLAYORDER=
